<mxfile host="Electron" modified="2023-11-29T21:21:58.304Z" agent="Mozilla/5.0 (X11; Linux x86_64) AppleWebKit/537.36 (KHTML, like Gecko) draw.io/22.1.2 Chrome/114.0.5735.289 Electron/25.9.4 Safari/537.36" etag="2xgt4hxKXelr-lJH4aV_" version="22.1.2" type="device" pages="2">
  <diagram name="PÃ¡gina-1" id="zwIt4ZT9LlGdYYxH_q5l">
    <mxGraphModel dx="1434" dy="839" grid="1" gridSize="10" guides="1" tooltips="1" connect="1" arrows="1" fold="1" page="1" pageScale="1" pageWidth="1169" pageHeight="827" math="0" shadow="0">
      <root>
        <mxCell id="0" />
        <mxCell id="1" parent="0" />
        <mxCell id="vZ2Ym8V51Z4fnAsbYTrX-24" value="" style="group" parent="1" vertex="1" connectable="0">
          <mxGeometry x="160" y="160" width="160" height="80" as="geometry" />
        </mxCell>
        <mxCell id="vZ2Ym8V51Z4fnAsbYTrX-25" value="" style="rounded=1;whiteSpace=wrap;html=1;fillColor=#BFBFBF;fontColor=#333333;strokeColor=#666666;container=0;" parent="vZ2Ym8V51Z4fnAsbYTrX-24" vertex="1">
          <mxGeometry width="160" height="80" as="geometry" />
        </mxCell>
        <mxCell id="vZ2Ym8V51Z4fnAsbYTrX-26" value="" style="endArrow=none;html=1;rounded=0;entryX=0.5;entryY=0;entryDx=0;entryDy=0;exitX=0.5;exitY=1;exitDx=0;exitDy=0;fillColor=#f5f5f5;strokeColor=#666666;" parent="vZ2Ym8V51Z4fnAsbYTrX-24" source="vZ2Ym8V51Z4fnAsbYTrX-25" target="vZ2Ym8V51Z4fnAsbYTrX-25" edge="1">
          <mxGeometry width="50" height="50" relative="1" as="geometry">
            <mxPoint x="10" y="440" as="sourcePoint" />
            <mxPoint x="60" y="390" as="targetPoint" />
          </mxGeometry>
        </mxCell>
        <mxCell id="vZ2Ym8V51Z4fnAsbYTrX-39" style="edgeStyle=orthogonalEdgeStyle;rounded=0;orthogonalLoop=1;jettySize=auto;html=1;" parent="vZ2Ym8V51Z4fnAsbYTrX-24" source="vZ2Ym8V51Z4fnAsbYTrX-27" edge="1">
          <mxGeometry relative="1" as="geometry">
            <mxPoint x="41" y="160" as="targetPoint" />
          </mxGeometry>
        </mxCell>
        <mxCell id="vZ2Ym8V51Z4fnAsbYTrX-27" value="" style="ellipse;whiteSpace=wrap;html=1;aspect=fixed;fillColor=#000000;container=0;" parent="vZ2Ym8V51Z4fnAsbYTrX-24" vertex="1">
          <mxGeometry x="36" y="35" width="10" height="10" as="geometry" />
        </mxCell>
        <mxCell id="vZ2Ym8V51Z4fnAsbYTrX-28" value="" style="ellipse;whiteSpace=wrap;html=1;aspect=fixed;fillColor=#000000;" parent="vZ2Ym8V51Z4fnAsbYTrX-24" vertex="1">
          <mxGeometry x="116" y="35" width="10" height="10" as="geometry" />
        </mxCell>
        <mxCell id="vZ2Ym8V51Z4fnAsbYTrX-38" value="" style="group" parent="1" vertex="1" connectable="0">
          <mxGeometry x="160" y="320" width="80" height="80" as="geometry" />
        </mxCell>
        <mxCell id="vZ2Ym8V51Z4fnAsbYTrX-36" value="" style="rounded=1;whiteSpace=wrap;html=1;" parent="vZ2Ym8V51Z4fnAsbYTrX-38" vertex="1">
          <mxGeometry width="80" height="80" as="geometry" />
        </mxCell>
        <mxCell id="vZ2Ym8V51Z4fnAsbYTrX-37" value="&lt;font style=&quot;font-size: 24px;&quot;&gt;a&lt;/font&gt;" style="text;html=1;strokeColor=none;fillColor=none;align=center;verticalAlign=middle;whiteSpace=wrap;rounded=0;" parent="vZ2Ym8V51Z4fnAsbYTrX-38" vertex="1">
          <mxGeometry x="10" y="25" width="60" height="30" as="geometry" />
        </mxCell>
        <mxCell id="hYa9ANRJxd4RdiM6IrgB-18" style="edgeStyle=orthogonalEdgeStyle;rounded=0;orthogonalLoop=1;jettySize=auto;html=1;entryX=0;entryY=0.5;entryDx=0;entryDy=0;" parent="1" source="hYa9ANRJxd4RdiM6IrgB-1" target="vZ2Ym8V51Z4fnAsbYTrX-25" edge="1">
          <mxGeometry relative="1" as="geometry" />
        </mxCell>
        <mxCell id="hYa9ANRJxd4RdiM6IrgB-1" value="v" style="text;html=1;strokeColor=none;fillColor=none;align=center;verticalAlign=middle;whiteSpace=wrap;rounded=0;fontSize=24;" parent="1" vertex="1">
          <mxGeometry x="20" y="185" width="60" height="30" as="geometry" />
        </mxCell>
        <mxCell id="hYa9ANRJxd4RdiM6IrgB-14" style="edgeStyle=orthogonalEdgeStyle;rounded=0;orthogonalLoop=1;jettySize=auto;html=1;exitX=0.5;exitY=0;exitDx=0;exitDy=0;entryX=0;entryY=0.5;entryDx=0;entryDy=0;" parent="1" source="vZ2Ym8V51Z4fnAsbYTrX-28" edge="1">
          <mxGeometry relative="1" as="geometry">
            <Array as="points">
              <mxPoint x="281" y="200" />
            </Array>
            <mxPoint x="400" y="200" as="targetPoint" />
          </mxGeometry>
        </mxCell>
        <mxCell id="hYa9ANRJxd4RdiM6IrgB-15" value="" style="group" parent="1" vertex="1" connectable="0">
          <mxGeometry x="400" y="320" width="80" height="80" as="geometry" />
        </mxCell>
        <mxCell id="hYa9ANRJxd4RdiM6IrgB-16" value="" style="rounded=1;whiteSpace=wrap;html=1;" parent="hYa9ANRJxd4RdiM6IrgB-15" vertex="1">
          <mxGeometry width="80" height="80" as="geometry" />
        </mxCell>
        <mxCell id="hYa9ANRJxd4RdiM6IrgB-17" value="&lt;font style=&quot;font-size: 24px;&quot;&gt;b&lt;/font&gt;" style="text;html=1;strokeColor=none;fillColor=none;align=center;verticalAlign=middle;whiteSpace=wrap;rounded=0;" parent="hYa9ANRJxd4RdiM6IrgB-15" vertex="1">
          <mxGeometry x="10" y="25" width="60" height="30" as="geometry" />
        </mxCell>
        <mxCell id="hYa9ANRJxd4RdiM6IrgB-39" value="" style="group" parent="1" vertex="1" connectable="0">
          <mxGeometry x="640" y="160" width="160" height="80" as="geometry" />
        </mxCell>
        <mxCell id="hYa9ANRJxd4RdiM6IrgB-40" value="" style="rounded=1;whiteSpace=wrap;html=1;fillColor=#BFBFBF;fontColor=#333333;strokeColor=#666666;container=0;" parent="hYa9ANRJxd4RdiM6IrgB-39" vertex="1">
          <mxGeometry width="160" height="80" as="geometry" />
        </mxCell>
        <mxCell id="hYa9ANRJxd4RdiM6IrgB-41" value="" style="endArrow=none;html=1;rounded=0;entryX=0.5;entryY=0;entryDx=0;entryDy=0;exitX=0.5;exitY=1;exitDx=0;exitDy=0;fillColor=#f5f5f5;strokeColor=#666666;" parent="hYa9ANRJxd4RdiM6IrgB-39" source="hYa9ANRJxd4RdiM6IrgB-40" target="hYa9ANRJxd4RdiM6IrgB-40" edge="1">
          <mxGeometry width="50" height="50" relative="1" as="geometry">
            <mxPoint x="10" y="440" as="sourcePoint" />
            <mxPoint x="60" y="390" as="targetPoint" />
          </mxGeometry>
        </mxCell>
        <mxCell id="hYa9ANRJxd4RdiM6IrgB-42" style="edgeStyle=orthogonalEdgeStyle;rounded=0;orthogonalLoop=1;jettySize=auto;html=1;" parent="hYa9ANRJxd4RdiM6IrgB-39" source="hYa9ANRJxd4RdiM6IrgB-43" edge="1">
          <mxGeometry relative="1" as="geometry">
            <mxPoint x="41" y="160" as="targetPoint" />
          </mxGeometry>
        </mxCell>
        <mxCell id="hYa9ANRJxd4RdiM6IrgB-43" value="" style="ellipse;whiteSpace=wrap;html=1;aspect=fixed;fillColor=#000000;container=0;" parent="hYa9ANRJxd4RdiM6IrgB-39" vertex="1">
          <mxGeometry x="36" y="35" width="10" height="10" as="geometry" />
        </mxCell>
        <mxCell id="hYa9ANRJxd4RdiM6IrgB-44" value="" style="ellipse;whiteSpace=wrap;html=1;aspect=fixed;fillColor=#000000;" parent="hYa9ANRJxd4RdiM6IrgB-39" vertex="1">
          <mxGeometry x="116" y="35" width="10" height="10" as="geometry" />
        </mxCell>
        <mxCell id="hYa9ANRJxd4RdiM6IrgB-45" value="" style="group" parent="1" vertex="1" connectable="0">
          <mxGeometry x="880" y="160" width="160" height="80" as="geometry" />
        </mxCell>
        <mxCell id="hYa9ANRJxd4RdiM6IrgB-46" value="" style="rounded=1;whiteSpace=wrap;html=1;fillColor=#BFBFBF;fontColor=#333333;strokeColor=#666666;container=0;" parent="hYa9ANRJxd4RdiM6IrgB-45" vertex="1">
          <mxGeometry width="160" height="80" as="geometry" />
        </mxCell>
        <mxCell id="hYa9ANRJxd4RdiM6IrgB-47" value="" style="endArrow=none;html=1;rounded=0;entryX=0.5;entryY=0;entryDx=0;entryDy=0;exitX=0.5;exitY=1;exitDx=0;exitDy=0;fillColor=#f5f5f5;strokeColor=#666666;" parent="hYa9ANRJxd4RdiM6IrgB-45" source="hYa9ANRJxd4RdiM6IrgB-46" target="hYa9ANRJxd4RdiM6IrgB-46" edge="1">
          <mxGeometry width="50" height="50" relative="1" as="geometry">
            <mxPoint x="10" y="440" as="sourcePoint" />
            <mxPoint x="60" y="390" as="targetPoint" />
          </mxGeometry>
        </mxCell>
        <mxCell id="hYa9ANRJxd4RdiM6IrgB-48" value="" style="ellipse;whiteSpace=wrap;html=1;aspect=fixed;fillColor=#000000;container=0;" parent="hYa9ANRJxd4RdiM6IrgB-45" vertex="1">
          <mxGeometry x="36" y="35" width="10" height="10" as="geometry" />
        </mxCell>
        <mxCell id="hYa9ANRJxd4RdiM6IrgB-49" value="" style="endArrow=none;html=1;rounded=0;exitX=0.5;exitY=1;exitDx=0;exitDy=0;entryX=0.972;entryY=0.063;entryDx=0;entryDy=0;entryPerimeter=0;strokeWidth=1;strokeColor=#7D7D7D;" parent="hYa9ANRJxd4RdiM6IrgB-45" source="hYa9ANRJxd4RdiM6IrgB-46" target="hYa9ANRJxd4RdiM6IrgB-46" edge="1">
          <mxGeometry width="50" height="50" relative="1" as="geometry">
            <mxPoint x="240" y="90" as="sourcePoint" />
            <mxPoint x="290" y="40" as="targetPoint" />
          </mxGeometry>
        </mxCell>
        <mxCell id="hYa9ANRJxd4RdiM6IrgB-50" value="" style="group" parent="1" vertex="1" connectable="0">
          <mxGeometry x="640" y="320" width="80" height="80" as="geometry" />
        </mxCell>
        <mxCell id="hYa9ANRJxd4RdiM6IrgB-51" value="" style="rounded=1;whiteSpace=wrap;html=1;" parent="hYa9ANRJxd4RdiM6IrgB-50" vertex="1">
          <mxGeometry width="80" height="80" as="geometry" />
        </mxCell>
        <mxCell id="hYa9ANRJxd4RdiM6IrgB-52" value="&lt;font style=&quot;font-size: 24px;&quot;&gt;c&lt;/font&gt;" style="text;html=1;strokeColor=none;fillColor=none;align=center;verticalAlign=middle;whiteSpace=wrap;rounded=0;" parent="hYa9ANRJxd4RdiM6IrgB-50" vertex="1">
          <mxGeometry x="10" y="25" width="60" height="30" as="geometry" />
        </mxCell>
        <mxCell id="hYa9ANRJxd4RdiM6IrgB-53" style="rounded=0;orthogonalLoop=1;jettySize=auto;html=1;entryX=0.25;entryY=0;entryDx=0;entryDy=0;" parent="1" source="hYa9ANRJxd4RdiM6IrgB-48" edge="1">
          <mxGeometry relative="1" as="geometry">
            <mxPoint x="920" y="320" as="targetPoint" />
          </mxGeometry>
        </mxCell>
        <mxCell id="hYa9ANRJxd4RdiM6IrgB-56" style="edgeStyle=orthogonalEdgeStyle;rounded=0;orthogonalLoop=1;jettySize=auto;html=1;exitX=0.5;exitY=0;exitDx=0;exitDy=0;entryX=0;entryY=0.5;entryDx=0;entryDy=0;" parent="1" source="hYa9ANRJxd4RdiM6IrgB-44" target="hYa9ANRJxd4RdiM6IrgB-46" edge="1">
          <mxGeometry relative="1" as="geometry">
            <Array as="points">
              <mxPoint x="761" y="200" />
            </Array>
          </mxGeometry>
        </mxCell>
        <mxCell id="hYa9ANRJxd4RdiM6IrgB-57" value="" style="group" parent="1" vertex="1" connectable="0">
          <mxGeometry x="880" y="320" width="80" height="80" as="geometry" />
        </mxCell>
        <mxCell id="hYa9ANRJxd4RdiM6IrgB-58" value="" style="rounded=1;whiteSpace=wrap;html=1;" parent="hYa9ANRJxd4RdiM6IrgB-57" vertex="1">
          <mxGeometry width="80" height="80" as="geometry" />
        </mxCell>
        <mxCell id="hYa9ANRJxd4RdiM6IrgB-59" value="&lt;font style=&quot;font-size: 24px;&quot;&gt;d&lt;/font&gt;" style="text;html=1;strokeColor=none;fillColor=none;align=center;verticalAlign=middle;whiteSpace=wrap;rounded=0;" parent="hYa9ANRJxd4RdiM6IrgB-57" vertex="1">
          <mxGeometry x="10" y="25" width="60" height="30" as="geometry" />
        </mxCell>
        <mxCell id="hBcJSHkGJ_vCvNkO-QMB-1" value="" style="group" vertex="1" connectable="0" parent="1">
          <mxGeometry x="400" y="160" width="160" height="80" as="geometry" />
        </mxCell>
        <mxCell id="hBcJSHkGJ_vCvNkO-QMB-2" value="" style="rounded=1;whiteSpace=wrap;html=1;fillColor=#BFBFBF;fontColor=#333333;strokeColor=#666666;container=0;" vertex="1" parent="hBcJSHkGJ_vCvNkO-QMB-1">
          <mxGeometry width="160" height="80" as="geometry" />
        </mxCell>
        <mxCell id="hBcJSHkGJ_vCvNkO-QMB-3" value="" style="endArrow=none;html=1;rounded=0;entryX=0.5;entryY=0;entryDx=0;entryDy=0;exitX=0.5;exitY=1;exitDx=0;exitDy=0;fillColor=#f5f5f5;strokeColor=#666666;" edge="1" parent="hBcJSHkGJ_vCvNkO-QMB-1" source="hBcJSHkGJ_vCvNkO-QMB-2" target="hBcJSHkGJ_vCvNkO-QMB-2">
          <mxGeometry width="50" height="50" relative="1" as="geometry">
            <mxPoint x="10" y="440" as="sourcePoint" />
            <mxPoint x="60" y="390" as="targetPoint" />
          </mxGeometry>
        </mxCell>
        <mxCell id="hBcJSHkGJ_vCvNkO-QMB-4" style="edgeStyle=orthogonalEdgeStyle;rounded=0;orthogonalLoop=1;jettySize=auto;html=1;" edge="1" parent="hBcJSHkGJ_vCvNkO-QMB-1" source="hBcJSHkGJ_vCvNkO-QMB-5">
          <mxGeometry relative="1" as="geometry">
            <mxPoint x="41" y="160" as="targetPoint" />
          </mxGeometry>
        </mxCell>
        <mxCell id="hBcJSHkGJ_vCvNkO-QMB-5" value="" style="ellipse;whiteSpace=wrap;html=1;aspect=fixed;fillColor=#000000;container=0;" vertex="1" parent="hBcJSHkGJ_vCvNkO-QMB-1">
          <mxGeometry x="36" y="35" width="10" height="10" as="geometry" />
        </mxCell>
        <mxCell id="hBcJSHkGJ_vCvNkO-QMB-6" value="" style="ellipse;whiteSpace=wrap;html=1;aspect=fixed;fillColor=#000000;" vertex="1" parent="hBcJSHkGJ_vCvNkO-QMB-1">
          <mxGeometry x="116" y="35" width="10" height="10" as="geometry" />
        </mxCell>
        <mxCell id="hBcJSHkGJ_vCvNkO-QMB-7" style="edgeStyle=orthogonalEdgeStyle;rounded=0;orthogonalLoop=1;jettySize=auto;html=1;entryX=0;entryY=0.5;entryDx=0;entryDy=0;" edge="1" parent="1" source="hBcJSHkGJ_vCvNkO-QMB-6" target="hYa9ANRJxd4RdiM6IrgB-40">
          <mxGeometry relative="1" as="geometry" />
        </mxCell>
      </root>
    </mxGraphModel>
  </diagram>
  <diagram id="jtOfouXwNSlKOWTkV27J" name="PÃ¡gina-2">
    <mxGraphModel dx="1434" dy="839" grid="1" gridSize="10" guides="1" tooltips="1" connect="1" arrows="1" fold="1" page="1" pageScale="1" pageWidth="1169" pageHeight="827" math="0" shadow="0">
      <root>
        <mxCell id="0" />
        <mxCell id="1" parent="0" />
        <mxCell id="bz447ZZZGvWrWxL3qn6A-1" value="" style="group" vertex="1" connectable="0" parent="1">
          <mxGeometry x="200" y="120" width="160" height="80" as="geometry" />
        </mxCell>
        <mxCell id="bz447ZZZGvWrWxL3qn6A-2" value="" style="rounded=1;whiteSpace=wrap;html=1;fillColor=#BFBFBF;fontColor=#333333;strokeColor=#666666;container=0;" vertex="1" parent="bz447ZZZGvWrWxL3qn6A-1">
          <mxGeometry width="160" height="80" as="geometry" />
        </mxCell>
        <mxCell id="bz447ZZZGvWrWxL3qn6A-3" value="" style="endArrow=none;html=1;rounded=0;entryX=0.5;entryY=0;entryDx=0;entryDy=0;exitX=0.5;exitY=1;exitDx=0;exitDy=0;fillColor=#f5f5f5;strokeColor=#666666;" edge="1" parent="bz447ZZZGvWrWxL3qn6A-1" source="bz447ZZZGvWrWxL3qn6A-2" target="bz447ZZZGvWrWxL3qn6A-2">
          <mxGeometry width="50" height="50" relative="1" as="geometry">
            <mxPoint x="10" y="440" as="sourcePoint" />
            <mxPoint x="60" y="390" as="targetPoint" />
          </mxGeometry>
        </mxCell>
        <mxCell id="bz447ZZZGvWrWxL3qn6A-4" style="edgeStyle=orthogonalEdgeStyle;rounded=0;orthogonalLoop=1;jettySize=auto;html=1;" edge="1" parent="bz447ZZZGvWrWxL3qn6A-1" source="bz447ZZZGvWrWxL3qn6A-5">
          <mxGeometry relative="1" as="geometry">
            <mxPoint x="41" y="160" as="targetPoint" />
          </mxGeometry>
        </mxCell>
        <mxCell id="bz447ZZZGvWrWxL3qn6A-5" value="" style="ellipse;whiteSpace=wrap;html=1;aspect=fixed;fillColor=#000000;container=0;" vertex="1" parent="bz447ZZZGvWrWxL3qn6A-1">
          <mxGeometry x="36" y="35" width="10" height="10" as="geometry" />
        </mxCell>
        <mxCell id="bz447ZZZGvWrWxL3qn6A-6" value="" style="ellipse;whiteSpace=wrap;html=1;aspect=fixed;fillColor=#000000;" vertex="1" parent="bz447ZZZGvWrWxL3qn6A-1">
          <mxGeometry x="116" y="35" width="10" height="10" as="geometry" />
        </mxCell>
        <mxCell id="bz447ZZZGvWrWxL3qn6A-7" value="" style="group" vertex="1" connectable="0" parent="1">
          <mxGeometry x="200" y="280" width="80" height="80" as="geometry" />
        </mxCell>
        <mxCell id="bz447ZZZGvWrWxL3qn6A-8" value="" style="rounded=1;whiteSpace=wrap;html=1;" vertex="1" parent="bz447ZZZGvWrWxL3qn6A-7">
          <mxGeometry width="80" height="80" as="geometry" />
        </mxCell>
        <mxCell id="bz447ZZZGvWrWxL3qn6A-9" value="&lt;font style=&quot;font-size: 24px;&quot;&gt;d&lt;/font&gt;" style="text;html=1;strokeColor=none;fillColor=none;align=center;verticalAlign=middle;whiteSpace=wrap;rounded=0;" vertex="1" parent="bz447ZZZGvWrWxL3qn6A-7">
          <mxGeometry x="10" y="25" width="60" height="30" as="geometry" />
        </mxCell>
        <mxCell id="bz447ZZZGvWrWxL3qn6A-10" style="edgeStyle=orthogonalEdgeStyle;rounded=0;orthogonalLoop=1;jettySize=auto;html=1;entryX=0;entryY=0.5;entryDx=0;entryDy=0;" edge="1" parent="1" source="bz447ZZZGvWrWxL3qn6A-11" target="bz447ZZZGvWrWxL3qn6A-2">
          <mxGeometry relative="1" as="geometry" />
        </mxCell>
        <mxCell id="bz447ZZZGvWrWxL3qn6A-11" value="w" style="text;html=1;strokeColor=none;fillColor=none;align=center;verticalAlign=middle;whiteSpace=wrap;rounded=0;fontSize=24;" vertex="1" parent="1">
          <mxGeometry x="60" y="145" width="60" height="30" as="geometry" />
        </mxCell>
        <mxCell id="bz447ZZZGvWrWxL3qn6A-12" style="edgeStyle=orthogonalEdgeStyle;rounded=0;orthogonalLoop=1;jettySize=auto;html=1;exitX=0.5;exitY=0;exitDx=0;exitDy=0;entryX=0;entryY=0.5;entryDx=0;entryDy=0;" edge="1" parent="1" source="bz447ZZZGvWrWxL3qn6A-6">
          <mxGeometry relative="1" as="geometry">
            <Array as="points">
              <mxPoint x="321" y="160" />
            </Array>
            <mxPoint x="440" y="160" as="targetPoint" />
          </mxGeometry>
        </mxCell>
        <mxCell id="bz447ZZZGvWrWxL3qn6A-13" value="" style="group" vertex="1" connectable="0" parent="1">
          <mxGeometry x="440" y="280" width="80" height="80" as="geometry" />
        </mxCell>
        <mxCell id="bz447ZZZGvWrWxL3qn6A-14" value="" style="rounded=1;whiteSpace=wrap;html=1;" vertex="1" parent="bz447ZZZGvWrWxL3qn6A-13">
          <mxGeometry width="80" height="80" as="geometry" />
        </mxCell>
        <mxCell id="bz447ZZZGvWrWxL3qn6A-15" value="&lt;font style=&quot;font-size: 24px;&quot;&gt;c&lt;/font&gt;" style="text;html=1;strokeColor=none;fillColor=none;align=center;verticalAlign=middle;whiteSpace=wrap;rounded=0;" vertex="1" parent="bz447ZZZGvWrWxL3qn6A-13">
          <mxGeometry x="10" y="25" width="60" height="30" as="geometry" />
        </mxCell>
        <mxCell id="bz447ZZZGvWrWxL3qn6A-16" value="" style="group" vertex="1" connectable="0" parent="1">
          <mxGeometry x="680" y="120" width="160" height="80" as="geometry" />
        </mxCell>
        <mxCell id="bz447ZZZGvWrWxL3qn6A-17" value="" style="rounded=1;whiteSpace=wrap;html=1;fillColor=#BFBFBF;fontColor=#333333;strokeColor=#666666;container=0;" vertex="1" parent="bz447ZZZGvWrWxL3qn6A-16">
          <mxGeometry width="160" height="80" as="geometry" />
        </mxCell>
        <mxCell id="bz447ZZZGvWrWxL3qn6A-18" value="" style="endArrow=none;html=1;rounded=0;entryX=0.5;entryY=0;entryDx=0;entryDy=0;exitX=0.5;exitY=1;exitDx=0;exitDy=0;fillColor=#f5f5f5;strokeColor=#666666;" edge="1" parent="bz447ZZZGvWrWxL3qn6A-16" source="bz447ZZZGvWrWxL3qn6A-17" target="bz447ZZZGvWrWxL3qn6A-17">
          <mxGeometry width="50" height="50" relative="1" as="geometry">
            <mxPoint x="10" y="440" as="sourcePoint" />
            <mxPoint x="60" y="390" as="targetPoint" />
          </mxGeometry>
        </mxCell>
        <mxCell id="bz447ZZZGvWrWxL3qn6A-19" style="edgeStyle=orthogonalEdgeStyle;rounded=0;orthogonalLoop=1;jettySize=auto;html=1;" edge="1" parent="bz447ZZZGvWrWxL3qn6A-16" source="bz447ZZZGvWrWxL3qn6A-20">
          <mxGeometry relative="1" as="geometry">
            <mxPoint x="41" y="160" as="targetPoint" />
          </mxGeometry>
        </mxCell>
        <mxCell id="bz447ZZZGvWrWxL3qn6A-20" value="" style="ellipse;whiteSpace=wrap;html=1;aspect=fixed;fillColor=#000000;container=0;" vertex="1" parent="bz447ZZZGvWrWxL3qn6A-16">
          <mxGeometry x="36" y="35" width="10" height="10" as="geometry" />
        </mxCell>
        <mxCell id="bz447ZZZGvWrWxL3qn6A-21" value="" style="ellipse;whiteSpace=wrap;html=1;aspect=fixed;fillColor=#000000;" vertex="1" parent="bz447ZZZGvWrWxL3qn6A-16">
          <mxGeometry x="116" y="35" width="10" height="10" as="geometry" />
        </mxCell>
        <mxCell id="bz447ZZZGvWrWxL3qn6A-22" value="" style="group" vertex="1" connectable="0" parent="1">
          <mxGeometry x="920" y="120" width="160" height="80" as="geometry" />
        </mxCell>
        <mxCell id="bz447ZZZGvWrWxL3qn6A-23" value="" style="rounded=1;whiteSpace=wrap;html=1;fillColor=#BFBFBF;fontColor=#333333;strokeColor=#666666;container=0;" vertex="1" parent="bz447ZZZGvWrWxL3qn6A-22">
          <mxGeometry width="160" height="80" as="geometry" />
        </mxCell>
        <mxCell id="bz447ZZZGvWrWxL3qn6A-24" value="" style="endArrow=none;html=1;rounded=0;entryX=0.5;entryY=0;entryDx=0;entryDy=0;exitX=0.5;exitY=1;exitDx=0;exitDy=0;fillColor=#f5f5f5;strokeColor=#666666;" edge="1" parent="bz447ZZZGvWrWxL3qn6A-22" source="bz447ZZZGvWrWxL3qn6A-23" target="bz447ZZZGvWrWxL3qn6A-23">
          <mxGeometry width="50" height="50" relative="1" as="geometry">
            <mxPoint x="10" y="440" as="sourcePoint" />
            <mxPoint x="60" y="390" as="targetPoint" />
          </mxGeometry>
        </mxCell>
        <mxCell id="bz447ZZZGvWrWxL3qn6A-25" value="" style="ellipse;whiteSpace=wrap;html=1;aspect=fixed;fillColor=#000000;container=0;" vertex="1" parent="bz447ZZZGvWrWxL3qn6A-22">
          <mxGeometry x="36" y="35" width="10" height="10" as="geometry" />
        </mxCell>
        <mxCell id="bz447ZZZGvWrWxL3qn6A-26" value="" style="endArrow=none;html=1;rounded=0;exitX=0.5;exitY=1;exitDx=0;exitDy=0;entryX=0.972;entryY=0.063;entryDx=0;entryDy=0;entryPerimeter=0;strokeWidth=1;strokeColor=#7D7D7D;" edge="1" parent="bz447ZZZGvWrWxL3qn6A-22" source="bz447ZZZGvWrWxL3qn6A-23" target="bz447ZZZGvWrWxL3qn6A-23">
          <mxGeometry width="50" height="50" relative="1" as="geometry">
            <mxPoint x="240" y="90" as="sourcePoint" />
            <mxPoint x="290" y="40" as="targetPoint" />
          </mxGeometry>
        </mxCell>
        <mxCell id="bz447ZZZGvWrWxL3qn6A-27" value="" style="group" vertex="1" connectable="0" parent="1">
          <mxGeometry x="680" y="280" width="80" height="80" as="geometry" />
        </mxCell>
        <mxCell id="bz447ZZZGvWrWxL3qn6A-28" value="" style="rounded=1;whiteSpace=wrap;html=1;" vertex="1" parent="bz447ZZZGvWrWxL3qn6A-27">
          <mxGeometry width="80" height="80" as="geometry" />
        </mxCell>
        <mxCell id="bz447ZZZGvWrWxL3qn6A-29" value="&lt;font style=&quot;font-size: 24px;&quot;&gt;b&lt;/font&gt;" style="text;html=1;strokeColor=none;fillColor=none;align=center;verticalAlign=middle;whiteSpace=wrap;rounded=0;" vertex="1" parent="bz447ZZZGvWrWxL3qn6A-27">
          <mxGeometry x="10" y="25" width="60" height="30" as="geometry" />
        </mxCell>
        <mxCell id="bz447ZZZGvWrWxL3qn6A-30" style="rounded=0;orthogonalLoop=1;jettySize=auto;html=1;entryX=0.25;entryY=0;entryDx=0;entryDy=0;" edge="1" parent="1" source="bz447ZZZGvWrWxL3qn6A-25">
          <mxGeometry relative="1" as="geometry">
            <mxPoint x="960" y="280" as="targetPoint" />
          </mxGeometry>
        </mxCell>
        <mxCell id="bz447ZZZGvWrWxL3qn6A-31" style="edgeStyle=orthogonalEdgeStyle;rounded=0;orthogonalLoop=1;jettySize=auto;html=1;exitX=0.5;exitY=0;exitDx=0;exitDy=0;entryX=0;entryY=0.5;entryDx=0;entryDy=0;" edge="1" parent="1" source="bz447ZZZGvWrWxL3qn6A-21" target="bz447ZZZGvWrWxL3qn6A-23">
          <mxGeometry relative="1" as="geometry">
            <Array as="points">
              <mxPoint x="801" y="160" />
            </Array>
          </mxGeometry>
        </mxCell>
        <mxCell id="bz447ZZZGvWrWxL3qn6A-32" value="" style="group" vertex="1" connectable="0" parent="1">
          <mxGeometry x="920" y="280" width="80" height="80" as="geometry" />
        </mxCell>
        <mxCell id="bz447ZZZGvWrWxL3qn6A-33" value="" style="rounded=1;whiteSpace=wrap;html=1;" vertex="1" parent="bz447ZZZGvWrWxL3qn6A-32">
          <mxGeometry width="80" height="80" as="geometry" />
        </mxCell>
        <mxCell id="bz447ZZZGvWrWxL3qn6A-34" value="&lt;font style=&quot;font-size: 24px;&quot;&gt;a&lt;/font&gt;" style="text;html=1;strokeColor=none;fillColor=none;align=center;verticalAlign=middle;whiteSpace=wrap;rounded=0;" vertex="1" parent="bz447ZZZGvWrWxL3qn6A-32">
          <mxGeometry x="10" y="25" width="60" height="30" as="geometry" />
        </mxCell>
        <mxCell id="bz447ZZZGvWrWxL3qn6A-35" value="" style="group" vertex="1" connectable="0" parent="1">
          <mxGeometry x="440" y="120" width="160" height="80" as="geometry" />
        </mxCell>
        <mxCell id="bz447ZZZGvWrWxL3qn6A-36" value="" style="rounded=1;whiteSpace=wrap;html=1;fillColor=#BFBFBF;fontColor=#333333;strokeColor=#666666;container=0;" vertex="1" parent="bz447ZZZGvWrWxL3qn6A-35">
          <mxGeometry width="160" height="80" as="geometry" />
        </mxCell>
        <mxCell id="bz447ZZZGvWrWxL3qn6A-37" value="" style="endArrow=none;html=1;rounded=0;entryX=0.5;entryY=0;entryDx=0;entryDy=0;exitX=0.5;exitY=1;exitDx=0;exitDy=0;fillColor=#f5f5f5;strokeColor=#666666;" edge="1" parent="bz447ZZZGvWrWxL3qn6A-35" source="bz447ZZZGvWrWxL3qn6A-36" target="bz447ZZZGvWrWxL3qn6A-36">
          <mxGeometry width="50" height="50" relative="1" as="geometry">
            <mxPoint x="10" y="440" as="sourcePoint" />
            <mxPoint x="60" y="390" as="targetPoint" />
          </mxGeometry>
        </mxCell>
        <mxCell id="bz447ZZZGvWrWxL3qn6A-38" style="edgeStyle=orthogonalEdgeStyle;rounded=0;orthogonalLoop=1;jettySize=auto;html=1;" edge="1" parent="bz447ZZZGvWrWxL3qn6A-35" source="bz447ZZZGvWrWxL3qn6A-39">
          <mxGeometry relative="1" as="geometry">
            <mxPoint x="41" y="160" as="targetPoint" />
          </mxGeometry>
        </mxCell>
        <mxCell id="bz447ZZZGvWrWxL3qn6A-39" value="" style="ellipse;whiteSpace=wrap;html=1;aspect=fixed;fillColor=#000000;container=0;" vertex="1" parent="bz447ZZZGvWrWxL3qn6A-35">
          <mxGeometry x="36" y="35" width="10" height="10" as="geometry" />
        </mxCell>
        <mxCell id="bz447ZZZGvWrWxL3qn6A-40" value="" style="ellipse;whiteSpace=wrap;html=1;aspect=fixed;fillColor=#000000;" vertex="1" parent="bz447ZZZGvWrWxL3qn6A-35">
          <mxGeometry x="116" y="35" width="10" height="10" as="geometry" />
        </mxCell>
        <mxCell id="bz447ZZZGvWrWxL3qn6A-41" style="edgeStyle=orthogonalEdgeStyle;rounded=0;orthogonalLoop=1;jettySize=auto;html=1;entryX=0;entryY=0.5;entryDx=0;entryDy=0;" edge="1" parent="1" source="bz447ZZZGvWrWxL3qn6A-40" target="bz447ZZZGvWrWxL3qn6A-17">
          <mxGeometry relative="1" as="geometry" />
        </mxCell>
        <mxCell id="bz447ZZZGvWrWxL3qn6A-43" style="edgeStyle=orthogonalEdgeStyle;rounded=0;orthogonalLoop=1;jettySize=auto;html=1;entryX=0;entryY=0.5;entryDx=0;entryDy=0;" edge="1" parent="1" source="bz447ZZZGvWrWxL3qn6A-42" target="bz447ZZZGvWrWxL3qn6A-23">
          <mxGeometry relative="1" as="geometry">
            <Array as="points">
              <mxPoint x="870" y="160" />
            </Array>
          </mxGeometry>
        </mxCell>
        <mxCell id="bz447ZZZGvWrWxL3qn6A-42" value="v" style="text;html=1;strokeColor=none;fillColor=none;align=center;verticalAlign=middle;whiteSpace=wrap;rounded=0;fontSize=24;" vertex="1" parent="1">
          <mxGeometry x="840" y="60" width="60" height="30" as="geometry" />
        </mxCell>
      </root>
    </mxGraphModel>
  </diagram>
</mxfile>
